<svg width="100" height="100" viewBox="0 0 100 100" fill="none" xmlns="http://www.w3.org/2000/svg">
<path d="M82.3122 12.35C81.8676 12.35 81.4231 12.25 81.0341 12.05C70.3653 7.1 61.1412 5 50.0834 5C39.0811 5 28.6345 7.35 19.1326 12.05C17.799 12.7 16.132 12.25 15.354 11.05C14.6317 9.85 15.1318 8.3 16.4654 7.65C26.8008 2.6 38.1365 0 50.0834 0C61.9191 0 72.2546 2.35 83.5902 7.6C84.9794 8.25 85.4795 9.75 84.7571 10.95C84.257 11.85 83.3124 12.35 82.3122 12.35ZM2.7959 38.6C2.24023 38.6 1.68456 38.45 1.18446 38.15C-0.0935811 37.35 -0.371416 35.8 0.517654 34.65C6.01878 27.65 13.0202 22.15 21.3553 18.3C38.8033 10.2 61.1412 10.15 78.6448 18.25C86.9798 22.1 93.9812 27.55 99.4823 34.5C100.371 35.6 100.094 37.2 98.8156 38C97.5375 38.8 95.8149 38.55 94.9259 37.4C89.9248 31.1 83.5902 26.15 76.0887 22.7C60.141 15.35 39.7479 15.35 23.8558 22.75C16.2987 26.25 9.96403 31.25 4.96301 37.55C4.51847 38.25 3.68497 38.6 2.7959 38.6ZM37.5252 98.95C36.8029 98.95 36.0805 98.7 35.5804 98.2C30.7461 93.85 28.1344 91.05 24.4114 85C20.5773 78.85 18.5769 71.35 18.5769 63.3C18.5769 48.45 32.6909 36.35 50.0278 36.35C67.3647 36.35 81.4787 48.45 81.4787 63.3C81.4787 64.7 80.2562 65.8 78.7003 65.8C77.1444 65.8 75.922 64.7 75.922 63.3C75.922 51.2 64.3085 41.35 50.0278 41.35C35.7471 41.35 24.1336 51.2 24.1336 63.3C24.1336 70.5 25.9117 77.15 29.3013 82.55C32.8576 88.3 35.3026 90.75 39.5812 94.65C40.637 95.65 40.637 97.2 39.5812 98.2C38.97 98.7 38.2476 98.95 37.5252 98.95ZM77.3667 89.7C70.7542 89.7 64.9197 88.2 60.141 85.25C51.8615 80.2 46.916 72 46.916 63.3C46.916 61.9 48.1385 60.8 49.6944 60.8C51.2503 60.8 52.4727 61.9 52.4727 63.3C52.4727 70.35 56.4735 77 63.2527 81.1C67.198 83.5 71.81 84.65 77.3667 84.65C78.7003 84.65 80.923 84.5 83.1457 84.15C84.646 83.9 86.0907 84.8 86.3686 86.2C86.6464 87.55 85.6462 88.85 84.0903 89.1C80.923 89.65 78.1447 89.7 77.3667 89.7ZM66.1978 100C65.9755 100 65.6977 99.95 65.4754 99.9C56.6402 97.7 50.8613 94.75 44.8045 89.4C37.0251 82.45 32.7465 73.2 32.7465 63.3C32.7465 55.2 40.4147 48.6 49.8611 48.6C59.3075 48.6 66.9757 55.2 66.9757 63.3C66.9757 68.65 72.1434 73 78.5336 73C84.9238 73 90.0915 68.65 90.0915 63.3C90.0915 44.45 72.0323 29.15 49.8055 29.15C34.0245 29.15 19.5771 37.05 13.0758 49.3C10.9087 53.35 9.79733 58.1 9.79733 63.3C9.79733 67.2 10.1863 73.35 13.5203 81.35C14.076 82.65 13.3536 84.1 11.9089 84.55C10.4641 85.05 8.85269 84.35 8.35259 83.1C5.62981 76.55 4.29621 70.05 4.29621 63.3C4.29621 57.3 5.57424 51.85 8.07476 47.1C15.4652 33.15 31.8574 24.1 49.8055 24.1C75.0885 24.1 95.6482 41.65 95.6482 63.25C95.6482 71.35 87.98 77.95 78.5336 77.95C69.0872 77.95 61.419 71.35 61.419 63.25C61.419 57.9 56.2513 53.55 49.8611 53.55C43.4709 53.55 38.3032 57.9 38.3032 63.25C38.3032 71.8 41.9706 79.8 48.6942 85.8C53.973 90.5 59.0296 93.1 66.8646 95.05C68.3649 95.4 69.1984 96.8 68.8094 98.1C68.5316 99.25 67.3647 100 66.1978 100Z" fill="#BDB8B8"/>
</svg>
