<svg width="30" height="24" viewBox="0 0 30 24" fill="none" xmlns="http://www.w3.org/2000/svg">
<path d="M29.25 21H25.5V5.31793C25.5 4.04012 24.4908 2.99996 23.25 2.99996H18V5.99997H22.5V24H29.25C29.6644 24 30 23.6644 30 23.25V21.75C30 21.3356 29.6644 21 29.25 21ZM14.6362 0.0472982L5.63625 2.37887C4.96828 2.55183 4.5 3.1734 4.5 3.88684V21H0.75C0.335625 21 0 21.3356 0 21.75V23.25C0 23.6644 0.335625 24 0.75 24H16.5V1.55527C16.5 0.543705 15.5831 -0.198327 14.6362 0.0472982ZM12.375 13.5C11.7539 13.5 11.25 12.8283 11.25 12C11.25 11.1717 11.7539 10.5 12.375 10.5C12.9961 10.5 13.5 11.1717 13.5 12C13.5 12.8283 12.9961 13.5 12.375 13.5Z" fill="#757171"/>
</svg>
